<?xml version="1.0" ?><svg width="120px" height="120px" viewBox="0 0 120 120" id="Layer_1" style="enable-background:new 0 0 120 120;" version="1.1" xml:space="preserve" xmlns="http://www.w3.org/2000/svg" xmlns:xlink="http://www.w3.org/1999/xlink"><style type="text/css">
	.st0{fill:#F4F4F4;}
	.st1{fill:#FF9DD7;}
	.st2{fill:#FCC3E7;}
	.st3{fill:#FF92A1;}
	.st4{fill:#6DE8B1;}
	.st5{fill:#5DC995;}
	.st6{opacity:0.4;fill:#FDFEFF;}
</style><g><g><path class="st0" d="M99.3,96.3H20.5c-3.1,0-5.5-2.5-5.5-5.5V24.3c0-3.1,2.5-5.5,5.5-5.5h78.9c3.1,0,5.5,2.5,5.5,5.5v66.5    C104.9,93.8,102.4,96.3,99.3,96.3z"/><path class="st1" d="M99.3,42.2H20.5c-3.1,0-5.5-2.5-5.5-5.5V24.3c0-3.1,2.5-5.5,5.5-5.5h78.9c3.1,0,5.5,2.5,5.5,5.5v12.4    C104.9,39.7,102.4,42.2,99.3,42.2z"/><g><path class="st2" d="M34.2,50.8h-9.9c-0.7,0-1.3,0.6-1.3,1.3v6.2c0,0.7,0.6,1.3,1.3,1.3h9.9c0.7,0,1.3-0.6,1.3-1.3v-6.2     C35.4,51.4,34.9,50.8,34.2,50.8z"/><path class="st2" d="M54.7,50.8h-9.9c-0.7,0-1.3,0.6-1.3,1.3v6.2c0,0.7,0.6,1.3,1.3,1.3h9.9c0.7,0,1.3-0.6,1.3-1.3v-6.2     C56,51.4,55.4,50.8,54.7,50.8z"/><path class="st2" d="M75.1,50.8h-9.9c-0.7,0-1.3,0.6-1.3,1.3v6.2c0,0.7,0.6,1.3,1.3,1.3h9.9c0.7,0,1.3-0.6,1.3-1.3v-6.2     C76.4,51.4,75.8,50.8,75.1,50.8z"/><path class="st2" d="M34.2,64.8h-9.9c-0.7,0-1.3,0.6-1.3,1.3v6.2c0,0.7,0.6,1.3,1.3,1.3h9.9c0.7,0,1.3-0.6,1.3-1.3v-6.2     C35.4,65.4,34.9,64.8,34.2,64.8z"/><path class="st2" d="M54.7,64.8h-9.9c-0.7,0-1.3,0.6-1.3,1.3v6.2c0,0.7,0.6,1.3,1.3,1.3h9.9c0.7,0,1.3-0.6,1.3-1.3v-6.2     C56,65.4,55.4,64.8,54.7,64.8z"/><path class="st2" d="M75.1,64.8h-9.9c-0.7,0-1.3,0.6-1.3,1.3v6.2c0,0.7,0.6,1.3,1.3,1.3h9.9c0.7,0,1.3-0.6,1.3-1.3v-6.2     C76.4,65.4,75.8,64.8,75.1,64.8z"/><path class="st2" d="M34.2,78.9h-9.9c-0.7,0-1.3,0.6-1.3,1.3v6.2c0,0.7,0.6,1.3,1.3,1.3h9.9c0.7,0,1.3-0.6,1.3-1.3v-6.2     C35.4,79.5,34.9,78.9,34.2,78.9z"/><path class="st2" d="M54.7,78.9h-9.9c-0.7,0-1.3,0.6-1.3,1.3v6.2c0,0.7,0.6,1.3,1.3,1.3h9.9c0.7,0,1.3-0.6,1.3-1.3v-6.2     C56,79.5,55.4,78.9,54.7,78.9z"/><path class="st2" d="M75.1,78.9h-9.9c-0.7,0-1.3,0.6-1.3,1.3v6.2c0,0.7,0.6,1.3,1.3,1.3h9.9c0.7,0,1.3-0.6,1.3-1.3v-6.2     C76.4,79.5,75.8,78.9,75.1,78.9z"/></g><g><path class="st3" d="M95.6,50.8h-9.9c-0.7,0-1.3,0.6-1.3,1.3v6.2c0,0.7,0.6,1.3,1.3,1.3h9.9c0.7,0,1.3-0.6,1.3-1.3v-6.2     C96.9,51.4,96.3,50.8,95.6,50.8z"/><path class="st3" d="M95.6,64.8h-9.9c-0.7,0-1.3,0.6-1.3,1.3v6.2c0,0.7,0.6,1.3,1.3,1.3h9.9c0.7,0,1.3-0.6,1.3-1.3v-6.2     C96.9,65.4,96.3,64.8,95.6,64.8z"/><path class="st3" d="M95.6,78.9h-9.9c-0.7,0-1.3,0.6-1.3,1.3v6.2c0,0.7,0.6,1.3,1.3,1.3h9.9c0.7,0,1.3-0.6,1.3-1.3v-6.2     C96.9,79.5,96.3,78.9,95.6,78.9z"/></g><g><path class="st4" d="M27.8,57.4c0.5,0,0.8-0.1,1.2-0.4l7-6.9c0.6-0.6,0.7-1.6,0.1-2.3c-0.6-0.6-1.6-0.7-2.3-0.1l-6,5.8l-3.4-3.8     C24,49,22.8,49,22.2,49.6c-0.7,0.5-0.7,1.6-0.1,2.3l4.5,5.1C27,57.2,27.3,57.4,27.8,57.4z"/><path class="st4" d="M57.9,61.3c-0.6-0.6-1.6-0.7-2.3-0.1l-5.9,5.7l-3.4-3.8c-0.5-0.7-1.6-0.7-2.3-0.1s-0.7,1.6-0.1,2.3l4.5,5.1     c0.3,0.3,0.7,0.5,1.2,0.5s0.8-0.1,1.2-0.4l7-6.9C58.4,62.9,58.5,61.9,57.9,61.3z"/><path class="st4" d="M35.9,76.2L30,81.9l-3.4-3.8C26,77.4,25,77.4,24.3,78c-0.7,0.6-0.7,1.6-0.1,2.3l4.5,5.1     c0.3,0.3,0.7,0.5,1.2,0.5s0.8-0.1,1.2-0.4l7-6.9c0.6-0.6,0.7-1.6,0.1-2.3C37.5,75.7,36.5,75.6,35.9,76.2z"/></g></g><g><rect class="st5" height="16.1" transform="matrix(0.8078 -0.5894 0.5894 0.8078 -33.7747 72.3989)" width="3.9" x="92.2" y="79.9"/><path class="st4" d="M104.6,98.3l-3.9,2.9c-0.2,0.2-0.5,0.1-0.7-0.1l-7.9-10.8c-0.2-0.2-0.1-0.5,0.1-0.7l3.9-2.9    c0.2-0.2,0.5-0.1,0.7,0.1l7.9,10.9C104.9,97.8,104.9,98.1,104.6,98.3z"/><circle class="st6" cx="81.5" cy="70.8" r="12"/><path class="st4" d="M81.5,55.3C73,55.3,66,62.2,66,70.8S73,86.2,81.5,86.2S97,79.3,97,70.8S90.1,55.3,81.5,55.3z M81.5,82.8    c-6.6,0-12-5.4-12-12s5.4-12,12-12s12,5.4,12,12S88.2,82.8,81.5,82.8z"/></g></g></svg>