<?xml version="1.0" encoding="utf-8"?>
<!-- Generator: Adobe Illustrator 25.0.0, SVG Export Plug-In . SVG Version: 6.00 Build 0)  -->
<svg version="1.1" id="Layer_1" xmlns="http://www.w3.org/2000/svg" xmlns:xlink="http://www.w3.org/1999/xlink" x="0px" y="0px"
	 viewBox="0 0 512 512" style="enable-background:new 0 0 512 512;" xml:space="preserve">
<style type="text/css">
	.st0{fill:#CB7350;}
	.st1{fill:#FFFFFF;}
</style>
<path class="st0" d="M431.8,511.8H80c-44.2,0-80-35.8-80-80L0,80C0,35.8,35.8,0,80,0l351.8,0c44.2,0,80,35.8,80,80v351.8
	C511.8,475.9,475.9,511.8,431.8,511.8z"/>
<g>
	<g>
		<g>
			<path class="st1" d="M357.5,324.7l-48.4-9.7c-5.2-1-8.9-5.6-8.9-10.8v-11.1c3.2-4.4,6.2-10.4,9.3-16.5c2.4-4.7,5.9-11.7,7.5-13.4
				c9.4-9.2,19.4-20.6,22.5-35.5c2.8-13.5,0-20.5-3.2-26c0-10.8,0-30.7-3.8-44.9c-0.4-17.3-3.5-27-11.5-35.7
				c-5.6-6.1-13.9-7.5-20.5-8.6c-2.6-0.4-6.2-1-7.5-1.7c-11.5-6.4-23.1-9.5-37.4-9.9c-29.2,1.1-65.1,19.6-77.1,53
				c-3.7,10.1-3.3,26.7-3,40.1l-0.3,7.8c-2.8,5.5-5.6,12.5-2.8,26c3.1,14.9,13.1,26.3,22.4,35.5c1.6,1.7,5.2,8.8,7.6,13.4
				c3.1,6.2,6.2,12.1,9.3,16.5v11.1c0,5.2-3.7,9.8-8.9,10.8l-48.4,9.7c-31,6.2-53.4,33.6-53.4,65.1v21c0,12.2,9.9,22.1,22.1,22.1
				h265.7c12.2,0,22.1-9.9,22.1-22.1v-21C410.9,358.3,388.4,330.9,357.5,324.7z"/>
		</g>
	</g>
	<g>
		<g>
			<path class="st1" d="M156.2,78.7H112c-6.1,0-11.1,5-11.1,11.1v66.4c0,6.1,5,11.1,11.1,11.1s11.1-5,11.1-11.1v-55.4h33.2
				c6.1,0,11.1-5,11.1-11.1C167.3,83.7,162.4,78.7,156.2,78.7z"/>
		</g>
	</g>
	<g>
		<g>
			<path class="st1" d="M156.2,278H123v-55.4c0-6.1-5-11.1-11.1-11.1s-11.1,5-11.1,11.1v66.4c0,6.1,5,11.1,11.1,11.1h44.3
				c6.1,0,11.1-5,11.1-11.1C167.3,283,162.4,278,156.2,278z"/>
		</g>
	</g>
	<g>
		<g>
			<path class="st1" d="M399.8,78.7h-44.3c-6.1,0-11.1,5-11.1,11.1c0,6.1,5,11.1,11.1,11.1h33.2v55.4c0,6.1,5,11.1,11.1,11.1
				c6.1,0,11.1-5,11.1-11.1V89.8C410.9,83.7,405.9,78.7,399.8,78.7z"/>
		</g>
	</g>
	<g>
		<g>
			<path class="st1" d="M399.8,211.6c-6.1,0-11.1,5-11.1,11.1V278h-33.2c-6.1,0-11.1,5-11.1,11.1c0,6.1,5,11.1,11.1,11.1h44.3
				c6.1,0,11.1-5,11.1-11.1v-66.4C410.9,216.6,405.9,211.6,399.8,211.6z"/>
		</g>
	</g>
</g>
</svg>
