<?xml version="1.0" encoding="utf-8"?>
<!-- Generator: Adobe Illustrator 25.0.0, SVG Export Plug-In . SVG Version: 6.00 Build 0)  -->
<svg version="1.1" id="Layer_1" xmlns="http://www.w3.org/2000/svg" xmlns:xlink="http://www.w3.org/1999/xlink" x="0px" y="0px"
	 viewBox="0 0 512 512" style="enable-background:new 0 0 512 512;" xml:space="preserve">
<style type="text/css">
	.st0{fill:#E78586;}
	.st1{fill:#FFFFFF;}
	.st2{opacity:0.7;fill:#FFFFFF;}
</style>
<path class="st0" d="M432,512H80c-44.2,0-80-35.8-80-80L0,80C0,35.8,35.8,0,80,0l352,0c44.2,0,80,35.8,80,80v352
	C512,476.2,476.2,512,432,512z"/>
<g>
	<path class="st1" d="M407.7,202.7L262.4,102.6c-3.3-2.3-7.7-2.3-11,0L106.1,202.7c-2.6,1.8-4.2,4.8-4.2,8V398
		c0,7.1,5.8,12.9,12.9,12.9h25.8v-155c0-7.1,5.8-12.9,12.9-12.9h206.7c7.1,0,12.9,5.8,12.9,12.9v155H399c7.1,0,12.9-5.8,12.9-12.9
		V210.7C411.9,207.5,410.3,204.5,407.7,202.7z"/>
	<path class="st1" d="M221.4,346.3v9.7c0,5.3-4.3,9.7-9.7,9.7c-5.3,0-9.7-4.3-9.7-9.7v-9.7h-22.6c-3.6,0-6.5,2.9-6.5,6.5v51.7
		c0,3.6,2.9,6.5,6.5,6.5H244c3.6,0,6.5-2.9,6.5-6.5v-51.7c0-3.6-2.9-6.5-6.5-6.5H221.4z"/>
	<path class="st1" d="M311.8,346.3v9.7c0,5.3-4.3,9.7-9.7,9.7c-5.3,0-9.7-4.3-9.7-9.7v-9.7h-22.6c-3.6,0-6.5,2.9-6.5,6.5v51.7
		c0,3.6,2.9,6.5,6.5,6.5h64.6c3.6,0,6.5-2.9,6.5-6.5v-51.7c0-3.6-2.9-6.5-6.5-6.5H311.8z"/>
	<path class="st2" d="M266.6,268.8v9.7c0,5.3-4.3,9.7-9.7,9.7c-5.3,0-9.7-4.3-9.7-9.7v-9.7h-22.6c-3.6,0-6.5,2.9-6.5,6.5v51.7
		c0,3.6,2.9,6.5,6.5,6.5h64.6c3.6,0,6.5-2.9,6.5-6.5v-51.7c0-3.6-2.9-6.5-6.5-6.5H266.6z"/>
</g>
</svg>
