<?xml version="1.0" encoding="utf-8"?>
<!-- Generator: Adobe Illustrator 25.0.0, SVG Export Plug-In . SVG Version: 6.00 Build 0)  -->
<svg version="1.1" id="Layer_1" xmlns="http://www.w3.org/2000/svg" xmlns:xlink="http://www.w3.org/1999/xlink" x="0px" y="0px"
	 viewBox="0 0 512 512" style="enable-background:new 0 0 512 512;" xml:space="preserve">
<style type="text/css">
	.st0{fill:#662D91;}
	.st1{opacity:0.7;}
	.st2{fill:#FFFFFF;}
</style>
<path class="st0" d="M432,512H79.8c-44.2,0-80-35.8-80-80l0-352.2c0-44.2,35.8-80,80-80l352.2,0c44.2,0,80,35.8,80,80V432
	C512,476.2,476.2,512,432,512z"/>
<g>
	<g class="st1">
		<g>
			<path class="st2" d="M351.3,246.8c-25,0-45.4,20.4-45.4,45.4c0,25,20.4,45.4,45.4,45.4c25,0,45.4-20.4,45.4-45.4
				C396.8,267.2,376.4,246.8,351.3,246.8z"/>
		</g>
	</g>
	<g>
		<g>
			<path class="st2" d="M168.5,100.9c-25,0-45.4,21-45.4,46s20.4,45.4,45.4,45.4s45.4-20.4,45.4-45.4S193.5,100.9,168.5,100.9z"/>
		</g>
	</g>
	<g>
		<g>
			<path class="st2" d="M395.9,179.3c-1.5-3.1-4.7-5.1-8.2-5.1h-9.6c-4.5-40.8-39.2-73.3-81.2-73.3h-36.9c-5,0-9.1,4.1-9.1,9.1
				s4.1,9.1,9.1,9.1c32,0,59.1,24.3,63.5,55.1H315c-3.5,0-6.7,2-8.2,5.1c-1.5,3.1-1.1,6.9,1.1,9.6l36.3,45.4
				c1.7,2.2,4.3,3.4,7.1,3.4s5.4-1.3,7.1-3.4l36.3-45.4C397,186.2,397.4,182.4,395.9,179.3z"/>
		</g>
	</g>
	<g class="st1">
		<g>
			<path class="st2" d="M259.9,392.7c-32,0-59.1-24.3-63.5-55.1h8.4c3.5,0,6.7-2,8.2-5.1c1.5-3.1,1.1-6.9-1.1-9.6l-36.3-45.4
				c-3.5-4.3-10.7-4.3-14.2,0l-36.3,45.4c-2.2,2.7-2.6,6.5-1.1,9.6c1.5,3.1,4.7,5.1,8.2,5.1h9.6c4.5,40.8,39.2,73.3,81.2,73.3h36.9
				c5,0,9.1-4.1,9.1-9.1S264.9,392.7,259.9,392.7z"/>
		</g>
	</g>
	<g class="st1">
		<g>
			<path class="st2" d="M395.7,337.6c-11.5,11.2-27.1,18.2-44.4,18.2c-17.3,0-32.9-7-44.4-18.2c-11.8,11.6-19.2,28.2-19.2,46v18.2
				c0,5,4.1,9.1,9.1,9.1h109c5,0,9.1-4.1,9.1-9.1v-18.2C414.9,365.8,407.5,349.2,395.7,337.6z"/>
		</g>
	</g>
	<g>
		<g>
			<path class="st2" d="M212.8,192.3c-11.5,11.2-27.1,18.2-44.4,18.2s-32.9-7-44.4-18.2c-11.8,11.6-19.2,27.6-19.2,45.4v18.2
				c0,5,4.1,9.1,9.1,9.1h109c5,0,9.1-4.1,9.1-9.1v-18.2C232.1,219.9,224.7,203.9,212.8,192.3z"/>
		</g>
	</g>
</g>
</svg>
