<?xml version="1.0" encoding="utf-8"?>
<!-- Generator: Adobe Illustrator 25.0.0, SVG Export Plug-In . SVG Version: 6.00 Build 0)  -->
<svg version="1.1" id="Layer_1" xmlns="http://www.w3.org/2000/svg" xmlns:xlink="http://www.w3.org/1999/xlink" x="0px" y="0px"
	 viewBox="0 0 512 512" style="enable-background:new 0 0 512 512;" xml:space="preserve">
<style type="text/css">
	.st0{fill:#F15A29;}
	.st1{fill:#FFFFFF;}
	.st2{opacity:0.7;fill:#FFFFFF;}
</style>
<path class="st0" d="M431.8,511.8H80c-44.2,0-80-35.8-80-80L0,80C0,35.8,35.8,0,80,0l351.8,0c44.2,0,80,35.8,80,80v351.8
	C511.8,475.9,475.9,511.8,431.8,511.8z"/>
<g>
	<path class="st1" d="M255.9,429c28.1,0,51.6-20,57-46.5H198.9C204.3,409,227.8,429,255.9,429z"/>
	<path class="st1" d="M410.9,334.4c0.1,0.6,0,1.2,0,1.7c0,0.7-0.1,1.4-0.1,2.1c-0.1,0.6-0.2,1.2-0.3,1.8c-0.1,0.4-0.1,0.9-0.2,1.3
		c-0.1,0.2-0.2,0.4-0.2,0.6c-0.1,0.3-0.1,0.7-0.2,1c-0.2,0.6-0.5,1.2-0.7,1.8c-0.2,0.6-0.4,1.1-0.7,1.7c-0.5,1.1-1,2.1-1.7,3.1
		c-0.2,0.3-0.3,0.6-0.5,0.9c-0.8,1.2-1.7,2.2-2.6,3.2c-0.1,0.1-0.2,0.2-0.3,0.3c-5.4,5.6-13.3,8.9-21.5,8.9H129.7
		c-8.2,0-16.1-3.3-21.5-8.9c-0.1-0.1-0.2-0.2-0.3-0.3c-1-1-1.9-2.1-2.6-3.2c-0.2-0.3-0.4-0.6-0.5-0.9c-0.6-1-1.2-2-1.7-3.1
		c-0.3-0.6-0.4-1.1-0.6-1.7c-0.3-0.6-0.6-1.2-0.7-1.8c-0.1-0.4-0.1-0.7-0.2-1c-0.1-0.2-0.2-0.4-0.2-0.6c-0.1-0.4-0.1-0.9-0.2-1.3
		c-0.1-0.6-0.2-1.2-0.3-1.8c-0.1-0.7-0.1-1.4-0.1-2.1c0-0.6-0.1-1.2,0-1.7c0-0.7,0.1-1.4,0.2-2.1c0.1-0.6,0.1-1.1,0.2-1.7
		c0.1-0.7,0.3-1.3,0.5-2c0.2-0.6,0.3-1.1,0.5-1.7c0.2-0.6,0.5-1.2,0.7-1.8c0.3-0.6,0.5-1.2,0.7-1.7c0.3-0.5,0.6-1,0.9-1.5
		c0.4-0.6,0.7-1.2,1.1-1.8c0.3-0.5,0.7-0.9,1-1.3c0.5-0.6,0.9-1.1,1.3-1.7c0.6-0.6,1.2-1.2,1.8-1.8c0.3-0.2,0.5-0.5,0.7-0.7
		c0.1-0.1,0.2-0.2,0.3-0.3c0.1,0,0.1-0.1,0.1-0.1c2.4-2,4.6-4.2,6.9-6.4c0.8-0.9,1.6-1.7,2.4-2.6c1.5-1.6,2.9-3.3,4.3-5
		c0.9-1.1,1.8-2.2,2.6-3.3c1.4-1.9,2.8-3.9,4-5.8c0.5-0.8,1-1.5,1.4-2.2c1.6-2.7,3.1-5.4,4.5-8.3c0.2-0.3,0.3-0.6,0.4-0.8
		c6.1-12.9,9.6-27.1,10-41.6c0.1,0,0.1,0,0.1,0c0.1-1.1,0.1-2.2,0.1-3.3v-43.2c0-56.4,43.1-102.8,98.2-108c3.4-0.3,6.9-0.5,10.3-0.5
		c3.5,0,6.9,0.2,10.3,0.5c11.8,1.1,23.1,4.1,33.6,8.8c-7.6,10.8-12,24-12,38.3c0,37,30,67,67,67c3.3,0,6.5-0.3,9.6-0.7v37.8
		c0,1.1,0.1,2.2,0.1,3.3c0.1,0,0.1,0,0.1,0c0.5,14.6,3.9,28.7,10,41.6c0.2,0.3,0.3,0.6,0.4,0.8c1.4,2.8,2.9,5.5,4.5,8.3
		c0.5,0.7,0.9,1.4,1.4,2.2c1.3,2,2.6,3.9,4,5.8c0.9,1.2,1.7,2.3,2.6,3.4c1.4,1.7,2.8,3.4,4.3,5c0.8,0.9,1.6,1.7,2.4,2.6
		c2.2,2.2,4.4,4.4,6.9,6.4c0.1,0,0.1,0.1,0.1,0.1c0.1,0.1,0.2,0.2,0.3,0.3c0.3,0.3,0.5,0.5,0.7,0.7c0.7,0.6,1.3,1.2,1.8,1.8
		c0.5,0.6,0.9,1.1,1.3,1.7c0.3,0.4,0.7,0.8,1,1.3c0.4,0.6,0.8,1.2,1.1,1.8c0.3,0.5,0.6,1,0.9,1.5c0.3,0.6,0.5,1.2,0.7,1.7
		c0.3,0.6,0.5,1.2,0.7,1.8c0.2,0.6,0.3,1.1,0.5,1.7c0.2,0.7,0.4,1.3,0.5,2c0.1,0.6,0.2,1.1,0.3,1.7
		C410.8,333.1,410.9,333.7,410.9,334.4z"/>
	<path class="st2" d="M400.8,131.2c0,25.4-20.6,45.9-46,45.9c-25.4,0-45.9-20.6-45.9-45.9s20.6-46,45.9-46
		C380.2,85.2,400.8,105.8,400.8,131.2z"/>
</g>
</svg>
