<?xml version="1.0" encoding="utf-8"?>
<!-- Generator: Adobe Illustrator 25.0.0, SVG Export Plug-In . SVG Version: 6.00 Build 0)  -->
<svg version="1.1" id="Layer_1" xmlns="http://www.w3.org/2000/svg" xmlns:xlink="http://www.w3.org/1999/xlink" x="0px" y="0px"
	 viewBox="0 0 512 512" style="enable-background:new 0 0 512 512;" xml:space="preserve">
<style type="text/css">
	.st0{fill:#A97C50;}
	.st1{opacity:0.7;fill:#FFFFFF;}
	.st2{fill:#FFFFFF;}
</style>
<path class="st0" d="M432,512H80c-44.2,0-80-35.8-80-80L0,80C0,35.8,35.8,0,80,0l352,0c44.2,0,80,35.8,80,80v352
	C512,476.2,476.2,512,432,512z"/>
<g>
	<g>
		<path class="st1" d="M189.5,118.7h130.7l0,45.8c0,0,17.3,18.8,17.3,18.8v-69.6c0-6.9-5.5-12.6-12.4-12.6H184.4
			c-6.9,0-12.6,5.7-12.6,12.6v20.6h17.7L189.5,118.7L189.5,118.7z"/>
		<path class="st2" d="M191.1,168.6H273l-0.1,32.2c0,3.5,1.4,6.9,3.9,9.4c2.5,2.5,5.8,3.9,9.4,3.9h33.1v78.3h19.3v-76.1
			c0-8.5-3.4-16.7-9.5-22.8l-34.8-34.9c-6.1-6.1-14.3-9.5-22.9-9.5h-86c-7.6,0-13.7,6.2-13.7,13.7v129.4h19.3L191.1,168.6
			L191.1,168.6z M290,177.9l20.3,20.1l-20.3,0V177.9z"/>
		<path class="st2" d="M213.6,208.8h26.3c5.2,0,9.5-4.4,9.5-9.7c0-5.2-4.2-9.7-9.5-9.7h-26.3c-5.2,0-9.5,4.4-9.5,9.6
			C204.1,204.4,208.3,208.8,213.6,208.8z"/>
		<path class="st2" d="M297.3,226h-83.7c-5.2,0-9.5,4.2-9.5,9.4c0,5.2,4.2,9.4,9.5,9.4h83.7c5.2,0,9.5-4.1,9.5-9.4
			C306.8,230.1,302.5,226,297.3,226z"/>
		<path class="st2" d="M297.3,261.9h-83.7c-5.2,0-9.5,4.4-9.5,9.6c0,5.2,4.2,9.7,9.5,9.7h83.7c5.2,0,9.5-4.4,9.5-9.7
			C306.8,266.3,302.5,261.9,297.3,261.9z"/>
		<path class="st2" d="M350.9,246.8v36.7l6.1,10c1.3,2.2,1.4,4.9,0.1,7.1c-1.2,2.2-3.6,3.6-6.1,3.6H160.6c-2.6,0-4.9-1.4-6.1-3.6
			c-1.2-2.2-1.2-5,0.1-7.1l4.9-8v-36.7l-28.4,46c-3.9,6.3-5.9,13.5-5.9,20.8v70.3c0,13.8,11.2,25.1,25.1,25.1h211.6
			c13.8,0,25.1-11.2,25.1-25.1v-70.3c0-7.4-2.1-14.7-6-21L350.9,246.8z"/>
	</g>
</g>
</svg>
