<?xml version="1.0" encoding="utf-8"?>
<!-- Generator: Adobe Illustrator 25.0.0, SVG Export Plug-In . SVG Version: 6.00 Build 0)  -->
<svg version="1.1" id="Layer_1" xmlns="http://www.w3.org/2000/svg" xmlns:xlink="http://www.w3.org/1999/xlink" x="0px" y="0px"
	 viewBox="0 0 512 512" style="enable-background:new 0 0 512 512;" xml:space="preserve">
<style type="text/css">
	.st0{fill:#2CBAE7;}
	.st1{fill:#FFFFFF;}
	.st2{fill:#262262;}
	.st3{opacity:0.7;fill:#FFFFFF;}
</style>
<path class="st0" d="M431.9,511.9h-352c-44.2,0-80-35.8-80-80l0-352c0-44.2,35.8-80,80-80l352,0c44.2,0,80,35.8,80,80v352
	C511.9,476.1,476.1,511.9,431.9,511.9z"/>
<g>
	<g>
		<path class="st1" d="M403.3,228.7l-13.8-2.3c-3.4-15.6-9.7-30.6-18.3-44.1l8.2-11.4c2.6-3.6,2.2-8.6-1-11.7l-25.8-25.8
			c-3.1-3.1-8.1-3.5-11.7-1l-11.4,8.2c-13.5-8.6-28.5-14.8-44.1-18.3l-2.3-13.8c-0.7-4.4-4.5-7.6-9-7.6h-36.5c-4.4,0-8.2,3.2-9,7.6
			l-2.3,13.8c-15.6,3.4-30.6,9.7-44.1,18.3l-11.4-8.2c-3.6-2.6-8.6-2.2-11.7,1l-25.8,25.8c-3.1,3.1-3.5,8.1-1,11.7l8.2,11.4
			c-8.6,13.5-14.8,28.5-18.3,44.1l-13.8,2.3c-4.4,0.7-7.6,4.5-7.6,9v36.5c0,4.4,3.2,8.2,7.6,9l13.8,2.3c3.4,15.6,9.7,30.6,18.3,44.1
			l-8.2,11.4c-2.6,3.6-2.2,8.6,1,11.7l25.8,25.8c3.1,3.1,8.1,3.5,11.7,1l11.4-8.2c13.5,8.6,28.5,14.8,44.1,18.3l2.3,13.8
			c0.7,4.4,4.5,7.6,9,7.6h36.5c4.4,0,8.2-3.2,9-7.6l2.3-13.8c15.6-3.4,30.6-9.7,44.1-18.3l11.4,8.2c3.6,2.6,8.6,2.2,11.7-1
			l25.8-25.8c3.1-3.1,3.5-8.1,1-11.7l-8.2-11.4c8.6-13.5,14.8-28.5,18.3-44.1l13.8-2.3c4.4-0.7,7.6-4.5,7.6-9v-36.5
			C410.9,233.2,407.7,229.4,403.3,228.7L403.3,228.7z M255.9,356.8c-55.7,0-100.9-45.2-100.9-100.9S200.2,155,255.9,155
			s100.9,45.2,100.9,100.9S311.6,356.8,255.9,356.8z"/>
	</g>
	<g>
		<path class="st2" d="M319.9,293.2c-15.8,17.4-38.7,28.3-64.1,28.3c-25.4,0-48.2-10.9-64.1-28.3c9.3-10.2,20.9-18.1,34.1-23
			c8.1,6.9,18.6,11,30,11c11.4,0,21.9-4.1,30-11C299,275,310.7,283,319.9,293.2z"/>
		<path class="st3" d="M282.1,234.9c0,14.5-11.7,26.2-26.2,26.2c-14.5,0-26.2-11.7-26.2-26.2s11.7-26.2,26.2-26.2
			C270.3,208.7,282.1,220.4,282.1,234.9z"/>
		<path class="st1" d="M285.8,270.2c-8,6.9-18.5,11-30,11c-11.4,0-21.9-4.1-30-11c-13.1,4.8-24.8,12.8-34.1,23
			c15.8,17.4,38.7,28.3,64.1,28.3c25.4,0,48.2-10.9,64.1-28.3C310.7,283,299,275,285.8,270.2z"/>
	</g>
</g>
</svg>
