<?xml version="1.0" encoding="utf-8"?>
<!-- Generator: Adobe Illustrator 25.0.0, SVG Export Plug-In . SVG Version: 6.00 Build 0)  -->
<svg version="1.1" id="Layer_1" xmlns="http://www.w3.org/2000/svg" xmlns:xlink="http://www.w3.org/1999/xlink" x="0px" y="0px"
	 viewBox="0 0 512 512" style="enable-background:new 0 0 512 512;" xml:space="preserve">
<style type="text/css">
	.st0{fill:#0091FF;}
	.st1{fill:#FFFFFF;}
	.st2{opacity:0.7;fill:#FFFFFF;}
</style>
<path class="st0" d="M432,512H80c-44.2,0-80-35.8-80-80L0,80C0,35.8,35.8,0,80,0l352,0c44.2,0,80,35.8,80,80v352
	C512,476.2,476.2,512,432,512z"/>
<g>
	<path class="st1" d="M315.3,168.4c0,37.2-30.2,67.4-67.4,67.4s-67.4-30.2-67.4-67.4s30.2-67.4,67.4-67.4S315.3,131.2,315.3,168.4z"
		/>
	<path class="st1" d="M282,381.3c-7-12.2-5.6-27.1,2.7-37.7c-8.4-10.6-9.8-25.6-2.7-37.7l10.9-18.9c6-10.4,17.2-16.8,29.2-16.8
		c1.6,0,3.3,0.1,4.9,0.4c0.4-1.1,1-2.1,1.6-3.2c-7.3-2.9-15.1-4.6-23.4-4.6H190.6c-35.3,0-64,28.7-64,64v47.2
		c0,5.6,4.5,10.1,10.1,10.1h146.9L282,381.3z"/>
	<path class="st2" d="M419.1,349.9c0.3-2.1,0.6-4.2,0.6-6.3c0-2.2-0.4-4.2-0.6-6.3l12.1-9.2c2.7-2,3.5-5.8,1.8-8.7l-10.9-18.9
		c-1.7-2.9-5.3-4.2-8.5-2.8l-14,5.9c-3.4-2.6-7-4.9-11-6.6l-1.9-14.8c-0.4-3.4-3.3-5.9-6.7-5.9h-21.8c-3.4,0-6.3,2.5-6.7,5.9
		l-1.9,14.8c-4,1.7-7.6,4-11,6.6l-14-5.9c-3.1-1.3-6.8-0.1-8.5,2.8l-10.9,18.9c-1.7,2.9-0.9,6.7,1.8,8.7l12.1,9.2
		c-0.3,2.1-0.6,4.2-0.6,6.3c0,2.2,0.4,4.2,0.6,6.3l-12.1,9.2c-2.7,2-3.5,5.8-1.8,8.7l10.9,18.9c1.7,2.9,5.3,4.2,8.5,2.8l14-5.9
		c3.4,2.6,7,4.9,11,6.6l1.9,14.8c0.4,3.4,3.3,5.9,6.7,5.9h21.8c3.4,0,6.3-2.5,6.7-5.9l1.9-14.8c4-1.7,7.6-4,11-6.6l14,5.9
		c3.1,1.3,6.8,0.1,8.5-2.8l10.9-18.9c1.7-2.9,0.9-6.7-1.8-8.7L419.1,349.9z M369.2,370.6c-14.9,0-27-12.1-27-27
		c0-14.9,12.1-27,27-27c14.9,0,27,12.1,27,27C396.1,358.5,384.1,370.6,369.2,370.6z"/>
</g>
</svg>
