<?xml version="1.0" encoding="utf-8"?>
<!-- Generator: Adobe Illustrator 25.0.0, SVG Export Plug-In . SVG Version: 6.00 Build 0)  -->
<svg version="1.1" id="Layer_1" xmlns="http://www.w3.org/2000/svg" xmlns:xlink="http://www.w3.org/1999/xlink" x="0px" y="0px"
	 viewBox="0 0 512 512" style="enable-background:new 0 0 512 512;" xml:space="preserve">
<style type="text/css">
	.st0{fill:#196899;}
	.st1{fill:#FFFFFF;}
</style>
<path class="st0" d="M431.8,511.8H80c-44.2,0-80-35.8-80-80L0,80C0,35.8,35.8,0,80,0l351.8,0c44.2,0,80,35.8,80,80v351.8
	C511.8,475.9,475.9,511.8,431.8,511.8z"/>
<path class="st1" d="M393.5,153H118.3c-9.6,0-17.4,7.8-17.4,17.4v170.9c0,9.6,7.8,17.4,17.4,17.4h275.2c9.6,0,17.4-7.8,17.4-17.4
	V170.4C410.9,160.8,403.1,153.1,393.5,153z M174.8,207c13.1,0,23.7,10.6,23.7,23.7s-10.6,23.7-23.7,23.7
	c-13.1,0-23.7-10.6-23.7-23.7C151,217.6,161.6,207,174.8,207z M214.4,309.9C214.4,309.9,214.4,309.9,214.4,309.9h-79.3
	c-1.8,0-3.2-1.5-3.2-3.2c0-23.6,19.2-42.8,42.8-42.8s42.8,19.2,42.8,42.8C217.6,308.5,216.2,309.9,214.4,309.9z M379.4,294.5H269.9
	c-3.4,0-6.3-2.6-6.6-6c-0.1-0.3-0.1-0.5-0.1-0.7v0c0-0.2,0-0.4,0-0.6c0-0.1,0-0.1,0-0.2c0.4-3.3,3.2-5.8,6.6-5.8h109.5
	c3.5,0,6.4,2.6,6.7,6c0.1,0.2,0.1,0.4,0.1,0.7C386.2,291.5,383.2,294.5,379.4,294.5z M379.4,262H269.9c-3.4,0-6.3-2.6-6.6-6
	c-0.1-0.3-0.1-0.5-0.1-0.8c0-0.3,0-0.5,0.1-0.7c0.3-3.4,3.2-6,6.6-6h109.5c3.7,0,6.7,3,6.7,6.7C386.2,259,383.2,262,379.4,262z
	 M386.1,223.5c-0.3,3.4-3.2,6.1-6.7,6.1H269.9c-3.4,0-6.2-2.5-6.6-5.8c0-0.3-0.1-0.6-0.1-0.9l0-0.6c0.3-3.4,3.2-6.1,6.7-6.1h109.5
	c3.7,0,6.6,2.9,6.7,6.4c0,0.1,0,0.2,0,0.3L386.1,223.5z"/>
</svg>
