<?xml version="1.0" encoding="utf-8"?>
<!-- Generator: Adobe Illustrator 25.0.0, SVG Export Plug-In . SVG Version: 6.00 Build 0)  -->
<svg version="1.1" id="Layer_1" xmlns="http://www.w3.org/2000/svg" xmlns:xlink="http://www.w3.org/1999/xlink" x="0px" y="0px"
	 viewBox="0 0 512 512" style="enable-background:new 0 0 512 512;" xml:space="preserve">
<style type="text/css">
	.st0{fill:#F15A29;}
	.st1{fill:#FFFFFF;}
	.st2{opacity:0.7;fill:#FFFFFF;}
</style>
<path class="st0" d="M431.8,511.8H80c-44.2,0-80-35.8-80-80L0,80C0,35.8,35.8,0,80,0l351.8,0c44.2,0,80,35.8,80,80v351.8
	C511.8,475.9,475.9,511.8,431.8,511.8z"/>
<g>
	<path class="st1" d="M165.4,172c-7.1-0.1-12.7-6.2-12.7-13.4c0-11.1,0-33.2,0-44.3c0-7.1,5.6-13.3,12.7-13.4
		c7.2-0.1,13.1,5.7,13.1,12.9v45.2C178.5,166.3,172.6,172.2,165.4,172z"/>
	<path class="st1" d="M226.7,172c-7.1-0.1-12.7-6.2-12.7-13.4c0-11.1,0-33.2,0-44.3c0-7.1,5.6-13.3,12.7-13.4
		c7.2-0.1,13.1,5.7,13.1,12.9v45.2C239.9,166.3,233.9,172.2,226.7,172z"/>
	<path class="st1" d="M288.1,172c-7.1-0.1-12.7-6.2-12.7-13.4c0-11.1,0-33.2,0-44.3c0-7.1,5.6-13.3,12.7-13.4
		c7.2-0.1,13.1,5.7,13.1,12.9v45.2C301.2,166.3,295.3,172.2,288.1,172z"/>
	<path class="st1" d="M301.2,130.1H152.7c-19.6,0-35.6,15.9-35.6,35.6v171.1c0,19.6,15.9,35.6,35.6,35.6H248c0,0,0,0,0,0l2.8-15.9
		c1.3-7.2,4.6-13.7,9.8-19l76.1-75.9c0,0,0,0,0,0v-95.8C336.7,146,320.8,130.1,301.2,130.1L301.2,130.1z M220.5,191.4
		c7.6,0,13.7,6.7,12.8,14.5c-0.8,6.6-6.6,11.4-13.2,11.4h-50.9c-6.6,0-12.4-4.8-13.2-11.4c-0.9-7.8,5.2-14.5,12.8-14.5H220.5z
		 M259.2,268.9h-90c-6.6,0-12.4-4.8-13.2-11.4c-0.9-7.8,5.2-14.5,12.8-14.5h90c6.6,0,12.4,4.8,13.2,11.4
		C273,262.2,266.8,268.9,259.2,268.9z"/>
	<path class="st2" d="M279,411c-2.5,0-5-1-6.8-2.8c-2.2-2.2-3.2-5.4-2.7-8.5l6.8-38.8c0.3-2,1.3-3.8,2.7-5.2l95.9-95.9
		c11.8-11.8,23.4-8.6,29.7-2.3l16,16c8.8,8.8,8.8,23.1,0,32l-95.9,95.9c-1.4,1.4-3.2,2.4-5.2,2.7l-38.8,6.8
		C280.1,410.9,279.5,411,279,411L279,411z M317.8,394.5h0.1H317.8z"/>
</g>
</svg>
